<svg width="60" height="60" viewBox="0 0 60 60" fill="none" xmlns="http://www.w3.org/2000/svg">
<path d="M25.0001 35L52.5001 7.5M25.0001 35L33.7501 52.5C33.8597 52.7394 34.0358 52.9422 34.2574 53.0844C34.479 53.2266 34.7368 53.3022 35.0001 53.3022C35.2633 53.3022 35.5211 53.2266 35.7427 53.0844C35.9643 52.9422 36.1404 52.7394 36.2501 52.5L52.5001 7.5M25.0001 35L7.50005 26.25C7.2607 26.1403 7.05787 25.9642 6.91567 25.7426C6.77347 25.521 6.69788 25.2633 6.69788 25C6.69788 24.7367 6.77347 24.479 6.91567 24.2574C7.05787 24.0358 7.2607 23.8597 7.50005 23.75L52.5001 7.5" stroke="white" stroke-width="2" stroke-linecap="round" stroke-linejoin="round"/>
</svg>
