<svg width="60" height="60" viewBox="0 0 60 60" fill="none" xmlns="http://www.w3.org/2000/svg">
<path d="M10.4363 34.1126C-3.52622 20.4188 15.9325 -1.38741 30.2838 14.5276C43.7338 -1.38741 63.5088 20.2076 49.665 34.1126L30.2838 53.5826L10.4363 34.1126Z" stroke="white" stroke-width="2" stroke-linecap="round" stroke-linejoin="round"/>
<path d="M30.3338 35.5849C28.8045 34.3017 27.707 32.5791 27.1903 30.6509C26.6736 28.7226 26.7626 26.6821 27.4454 24.8061C28.1281 22.9302 29.3715 21.3098 31.0067 20.1648C32.642 19.0197 34.59 18.4055 36.5863 18.4055C38.5826 18.4055 40.5305 19.0197 42.1658 20.1648C43.801 21.3098 45.0444 22.9302 45.7272 24.8061C46.4099 26.6821 46.499 28.7226 45.9823 30.6509C45.4655 32.5791 44.3681 34.3017 42.8388 35.5849" stroke="white" stroke-linecap="round" stroke-linejoin="round"/>
<path d="M28.5337 22.19C26.8227 20.9923 24.7155 20.5012 22.6513 20.8191C20.5871 21.1369 18.7253 22.2392 17.4539 23.8962C16.1825 25.5531 15.5997 27.6368 15.8269 29.7129C16.0542 31.789 17.074 33.6973 18.6737 35.04C16.7737 36.175 15.6399 37.3088 14.9712 38.4425M42.8387 35.585C43.8974 35.9738 44.9912 36.5675 46.1612 37.6325M30.3337 35.585C26.6712 38.0975 23.8249 41.33 22.0674 45.5225" stroke="white" stroke-width="2" stroke-linecap="round" stroke-linejoin="round"/>
</svg>
