<svg width="301" height="301" viewBox="0 0 301 301" fill="none" xmlns="http://www.w3.org/2000/svg">
<path d="M85.8872 58.1413C81.8744 59.0771 78.2293 61.1818 75.4127 64.1893C72.5961 67.1968 70.7346 70.9719 70.0636 75.0374C69.3925 79.1028 69.9421 83.2759 71.6428 87.029C73.3434 90.7821 76.1189 93.9466 79.618 96.1224C83.1172 98.2981 87.183 99.3873 91.3012 99.2524C95.4195 99.1174 99.4052 97.7642 102.754 95.364C106.104 92.9639 108.666 89.6244 110.117 85.768C111.568 81.9116 111.843 77.7114 110.908 73.6987C109.653 68.3177 106.312 63.6556 101.619 60.7381C96.9272 57.8205 91.2682 56.8864 85.8872 58.1413ZM128.425 58.9173C125.415 59.6191 122.682 61.1977 120.569 63.4533C118.457 65.7089 117.061 68.5403 116.557 71.5893C116.054 74.6384 116.466 77.7683 117.742 80.5831C119.017 83.3979 121.099 85.7713 123.723 87.4031C126.348 89.0349 129.397 89.8518 132.486 89.7506C135.574 89.6494 138.564 88.6345 141.075 86.8344C143.587 85.0342 145.509 82.5296 146.597 79.6373C147.686 76.745 147.892 73.5949 147.19 70.5853C146.249 66.5496 143.743 63.0531 140.224 60.8649C136.705 58.6767 132.461 57.9761 128.425 58.9173ZM161.9 67.1549C159.893 67.6229 158.071 68.6752 156.663 70.1789C155.254 71.6827 154.324 73.5703 153.988 75.603C153.653 77.6357 153.927 79.7223 154.778 81.5988C155.628 83.4754 157.016 85.0576 158.765 86.1455C160.515 87.2333 162.548 87.778 164.607 87.7105C166.666 87.643 168.659 86.9664 170.333 85.7663C172.008 84.5662 173.289 82.8965 174.015 80.9683C174.74 79.0401 174.878 76.94 174.41 74.9336C173.783 72.2432 172.112 69.9121 169.766 68.4533C167.42 66.9946 164.59 66.5275 161.9 67.1549ZM186.245 77.5218C184.238 77.9897 182.416 79.0421 181.007 80.5458C179.599 82.0495 178.668 83.9371 178.333 85.9698C177.997 88.0026 178.272 90.0891 179.122 91.9657C179.973 93.8422 181.36 95.4245 183.11 96.5123C184.86 97.6002 186.893 98.1448 188.952 98.0773C191.011 98.0098 193.004 97.3333 194.678 96.1332C196.353 94.9331 197.634 93.2634 198.36 91.3351C199.085 89.4069 199.223 87.3069 198.755 85.3005C198.127 82.61 196.457 80.279 194.111 78.8202C191.765 77.3614 188.935 76.8944 186.245 77.5218ZM124.457 156.108C120.913 156.91 117.24 156.962 113.675 156.259C110.109 155.556 106.731 154.115 103.756 152.029C100.781 149.942 98.2752 147.256 96.4006 144.143C94.526 141.029 93.3237 137.559 92.871 133.953C92.2761 127.383 94.0994 120.822 97.9986 115.502C101.898 110.181 107.605 106.466 114.049 105.055L139.207 99.1876C152.53 96.0635 166.51 97.3984 179.001 102.987C191.492 108.576 201.804 118.11 208.353 130.125C210.809 134.522 211.589 139.66 210.549 144.588C208.198 155.006 208.234 165.821 210.653 176.224C213.264 185.97 217.898 195.058 224.254 202.895C226.212 205.416 227.538 208.37 228.121 211.509C228.705 214.648 228.528 217.882 227.606 220.938C225.049 228.366 220.236 234.809 213.84 239.369C207.444 243.928 199.784 246.377 191.929 246.372C186.107 246.383 180.367 245 175.189 242.337C170.012 239.675 165.547 235.811 162.169 231.07C158.79 226.328 156.597 220.846 155.771 215.083C154.946 209.32 155.513 203.443 157.424 197.943C159.469 192.29 159.716 186.143 158.133 180.343C158.133 180.343 153.369 149.366 124.457 156.108Z" fill="#8DACFD"/>
</svg>
