<svg width="301" height="301" viewBox="0 0 301 301" fill="none" xmlns="http://www.w3.org/2000/svg">
<path d="M85.8872 58.1414C81.8744 59.0772 78.2293 61.1819 75.4127 64.1894C72.5961 67.1968 70.7346 70.972 70.0636 75.0374C69.3925 79.1029 69.9421 83.276 71.6428 87.0291C73.3434 90.7822 76.1189 93.9467 79.618 96.1224C83.1172 98.2982 87.183 99.3874 91.3012 99.2524C95.4195 99.1175 99.4052 97.7643 102.754 95.3641C106.104 92.9639 108.666 89.6245 110.117 85.7681C111.568 81.9116 111.843 77.7115 110.908 73.6987C109.653 68.3178 106.312 63.6557 101.619 60.7381C96.9272 57.8206 91.2682 56.8865 85.8872 58.1414ZM128.425 58.9173C125.415 59.6192 122.682 61.1977 120.569 63.4534C118.457 65.709 117.061 68.5403 116.557 71.5894C116.054 74.6385 116.466 77.7683 117.742 80.5831C119.017 83.398 121.099 85.7713 123.723 87.4031C126.348 89.035 129.397 89.8519 132.486 89.7507C135.574 89.6494 138.564 88.6346 141.075 86.8344C143.587 85.0343 145.509 82.5297 146.597 79.6374C147.686 76.7451 147.892 73.595 147.19 70.5854C146.249 66.5497 143.743 63.0531 140.224 60.8649C136.705 58.6768 132.461 57.9762 128.425 58.9173ZM161.9 67.155C159.893 67.6229 158.071 68.6753 156.663 70.179C155.254 71.6827 154.324 73.5703 153.988 75.603C153.653 77.6358 153.927 79.7223 154.778 81.5989C155.628 83.4754 157.016 85.0577 158.765 86.1455C160.515 87.2334 162.548 87.778 164.607 87.7105C166.666 87.6431 168.659 86.9665 170.333 85.7664C172.008 84.5663 173.289 82.8966 174.015 80.9684C174.74 79.0402 174.878 76.9401 174.41 74.9337C173.783 72.2432 172.112 69.9122 169.766 68.4534C167.42 66.9946 164.59 66.5276 161.9 67.155ZM186.245 77.5219C184.238 77.9898 182.416 79.0421 181.007 80.5459C179.599 82.0496 178.668 83.9372 178.333 85.9699C177.997 88.0026 178.272 90.0892 179.122 91.9657C179.973 93.8423 181.36 95.4245 183.11 96.5124C184.86 97.6003 186.893 98.1449 188.952 98.0774C191.011 98.0099 193.004 97.3333 194.678 96.1332C196.353 94.9331 197.634 93.2634 198.36 91.3352C199.085 89.407 199.223 87.3069 198.755 85.3005C198.127 82.6101 196.457 80.279 194.111 78.8203C191.765 77.3615 188.935 76.8944 186.245 77.5219ZM124.457 156.108C120.913 156.91 117.24 156.962 113.675 156.259C110.109 155.556 106.731 154.115 103.756 152.029C100.781 149.942 98.2752 147.256 96.4006 144.143C94.526 141.03 93.3237 137.559 92.871 133.953C92.2761 127.383 94.0994 120.822 97.9986 115.502C101.898 110.181 107.605 106.466 114.049 105.055L139.207 99.1876C152.53 96.0636 166.51 97.3985 179.001 102.987C191.492 108.576 201.804 118.11 208.353 130.125C210.809 134.522 211.589 139.66 210.549 144.588C208.198 155.006 208.234 165.822 210.653 176.224C213.264 185.971 217.898 195.058 224.254 202.895C226.212 205.417 227.538 208.37 228.121 211.509C228.705 214.649 228.528 217.882 227.606 220.938C225.049 228.366 220.236 234.809 213.84 239.369C207.444 243.928 199.784 246.377 191.929 246.372C186.107 246.383 180.367 245 175.189 242.337C170.012 239.675 165.547 235.811 162.169 231.07C158.79 226.328 156.597 220.846 155.771 215.083C154.946 209.32 155.513 203.443 157.424 197.943C159.469 192.29 159.716 186.143 158.133 180.343C158.133 180.343 153.369 149.366 124.457 156.108Z" fill="#009C22"/>
</svg>
