<svg width="268" height="268" viewBox="0 0 268 268" fill="none" xmlns="http://www.w3.org/2000/svg">
<path d="M183.193 33.1817C187.302 33.4829 191.23 34.9959 194.48 37.5293C197.729 40.0628 200.155 43.503 201.449 47.4148C202.743 51.3267 202.849 55.5345 201.752 59.5062C200.655 63.478 198.404 67.0352 195.286 69.728C192.167 72.4209 188.32 74.1284 184.23 74.6348C180.141 75.1411 175.994 74.4235 172.312 72.5727C168.631 70.7219 165.581 67.821 163.548 64.2368C161.516 60.6526 160.591 56.5462 160.893 52.4368C161.296 46.9262 163.873 41.8017 168.055 38.1907C172.237 34.5797 177.682 32.7779 183.193 33.1817ZM141.292 40.5558C144.374 40.7816 147.32 41.9164 149.757 43.8165C152.194 45.7166 154.013 48.2967 154.984 51.2306C155.955 54.1645 156.034 57.3204 155.211 60.2991C154.388 63.2779 152.7 65.9458 150.361 67.9655C148.022 69.9851 145.137 71.2658 142.07 71.6456C139.003 72.0253 135.892 71.4871 133.131 70.099C130.37 68.7109 128.083 66.5352 126.559 63.8471C125.034 61.1589 124.341 58.0791 124.567 54.997C124.87 50.8641 126.802 47.0208 129.938 44.3125C133.075 41.6042 137.159 40.2529 141.292 40.5558ZM109.503 53.8931C111.558 54.0437 113.522 54.8002 115.146 56.0669C116.771 57.3337 117.984 59.0537 118.631 61.0097C119.278 62.9656 119.331 65.0695 118.782 67.0554C118.234 69.0412 117.109 70.8198 115.549 72.1663C113.99 73.5127 112.066 74.3665 110.022 74.6197C107.977 74.8728 105.903 74.514 104.063 73.5886C102.222 72.6632 100.697 71.2127 99.6807 69.4207C98.6643 67.6286 98.2022 65.5753 98.3528 63.5206C98.5547 60.7654 99.8429 58.2031 101.934 56.3976C104.025 54.5921 106.748 53.6912 109.503 53.8931ZM87.0639 67.9157C89.1186 68.0662 91.0825 68.8227 92.7073 70.0895C94.3321 71.3562 95.5448 73.0763 96.192 75.0322C96.8391 76.9881 96.8918 79.0921 96.3433 81.0779C95.7947 83.0638 94.6696 84.8424 93.1103 86.1888C91.5509 87.5352 89.6273 88.389 87.5827 88.6422C85.5381 88.8954 83.4643 88.5366 81.6236 87.6111C79.7829 86.6857 78.258 85.2353 77.2417 83.4432C76.2253 81.6511 75.7632 79.5979 75.9138 77.5432C76.1157 74.7879 77.4039 72.2257 79.4949 70.4202C81.586 68.6146 84.3086 67.7138 87.0639 67.9157ZM160.308 135.951C163.934 136.192 167.57 135.673 170.983 134.425C174.396 133.177 177.51 131.229 180.125 128.705C182.74 126.182 184.798 123.139 186.166 119.772C187.534 116.406 188.183 112.79 188.07 109.158C187.637 102.576 184.817 96.3777 180.138 91.7272C175.46 87.0767 169.245 84.2936 162.66 83.9001L136.896 82.012C123.25 80.9954 109.647 84.4856 98.1753 91.9468C86.704 99.4081 77.9984 110.428 73.3951 123.315C71.6518 128.04 71.6791 133.236 73.4721 137.943C77.4126 147.87 79.0572 158.559 78.283 169.211C77.2175 179.245 74.0514 188.942 68.9907 197.671C67.4477 200.466 66.5964 203.59 66.5079 206.782C66.4193 209.973 67.0962 213.14 68.4819 216.016C72.1614 222.956 77.9163 228.574 84.9429 232.085C91.9696 235.595 99.9173 236.824 107.676 235.6C113.429 234.706 118.885 232.448 123.586 229.013C128.287 225.579 132.098 221.069 134.698 215.86C137.299 210.651 138.615 204.895 138.535 199.074C138.455 193.252 136.982 187.534 134.24 182.399C131.342 177.132 130.142 171.098 130.806 165.123C130.806 165.123 130.7 133.781 160.308 135.951Z" fill="#FF0000"/>
</svg>
