<svg width="286" height="286" viewBox="0 0 286 286" fill="none" xmlns="http://www.w3.org/2000/svg">
<path d="M200.238 46.4673C204.309 47.1073 208.098 48.9399 211.127 51.7335C214.156 54.527 216.288 58.156 217.255 62.1615C218.221 66.167 217.978 70.3691 216.556 74.2365C215.134 78.1039 212.598 81.4628 209.267 83.8885C205.936 86.3142 201.961 87.6977 197.844 87.8641C193.727 88.0305 189.653 86.9723 186.137 84.8234C182.621 82.6744 179.822 79.5312 178.093 75.7912C176.363 72.0512 175.782 67.8824 176.422 63.8119C177.28 58.3536 180.271 53.4598 184.738 50.2071C189.204 46.9543 194.78 45.6091 200.238 46.4673ZM157.871 50.3506C160.924 50.8306 163.766 52.205 166.037 54.3002C168.309 56.3954 169.908 59.1171 170.633 62.1212C171.358 65.1254 171.176 68.277 170.109 71.1775C169.043 74.078 167.14 76.5972 164.642 78.4165C162.144 80.2357 159.163 81.2734 156.075 81.3982C152.987 81.523 149.932 80.7294 147.295 79.1176C144.658 77.5059 142.559 75.1485 141.262 72.3435C139.965 69.5385 139.529 66.4119 140.009 63.3591C140.652 59.2653 142.896 55.595 146.246 53.1554C149.595 50.7158 153.777 49.7069 157.871 50.3506ZM125.088 61.0131C127.123 61.3331 129.018 62.2494 130.532 63.6462C132.047 65.0429 133.113 66.8574 133.596 68.8602C134.079 70.8629 133.958 72.964 133.247 74.8977C132.536 76.8314 131.268 78.5108 129.602 79.7237C127.937 80.9365 125.949 81.6283 123.891 81.7115C121.832 81.7947 119.795 81.2656 118.037 80.1911C116.279 79.1166 114.88 77.545 114.015 75.675C113.15 73.805 112.86 71.7206 113.18 69.6854C113.609 66.9563 115.104 64.5094 117.338 62.883C119.571 61.2566 122.359 60.584 125.088 61.0131ZM101.566 73.1317C103.601 73.4517 105.496 74.368 107.01 75.7648C108.525 77.1616 109.591 78.9761 110.074 80.9788C110.557 82.9816 110.436 85.0826 109.725 87.0163C109.014 88.95 107.746 90.6295 106.08 91.8423C104.415 93.0552 102.427 93.7469 100.369 93.8301C98.3101 93.9133 96.2731 93.3842 94.5153 92.3098C92.7574 91.2353 91.3577 89.6637 90.4931 87.7937C89.6284 85.9237 89.3377 83.8393 89.6577 81.804C90.0868 79.0749 91.5825 76.628 93.8157 75.0016C96.0489 73.3752 98.8367 72.7026 101.566 73.1317ZM168.932 146.991C172.526 147.532 176.193 147.315 179.697 146.354C183.202 145.392 186.466 143.708 189.281 141.41C192.095 139.111 194.397 136.249 196.039 133.007C197.681 129.765 198.627 126.216 198.815 122.587C198.928 115.991 196.63 109.581 192.352 104.56C188.074 99.538 182.111 96.2504 175.581 95.3137L150.061 91.3012C136.546 89.1594 122.701 91.5126 110.652 97.9995C98.6025 104.486 89.0154 114.749 83.3621 127.211C81.2339 131.775 80.8314 136.956 82.2289 141.795C85.3349 152.014 86.0898 162.803 84.4372 173.354C82.5455 183.265 78.5883 192.667 72.823 200.948C71.0541 203.606 69.9473 206.649 69.5951 209.822C69.243 212.995 69.6556 216.207 70.7987 219.188C73.8916 226.408 79.1621 232.483 85.8744 236.563C92.5866 240.643 100.405 242.525 108.239 241.946C114.046 241.531 119.67 239.732 124.639 236.698C129.608 233.664 133.779 229.485 136.801 224.509C139.824 219.533 141.611 213.905 142.013 208.097C142.415 202.289 141.42 196.469 139.112 191.124C136.659 185.636 135.963 179.523 137.118 173.623C137.118 173.623 139.605 142.38 168.932 146.991Z" fill="#FFF200"/>
</svg>
